<?xml version="1.0"?>
<svg xmlns="http://www.w3.org/2000/svg" xmlns:xlink="http://www.w3.org/1999/xlink" version="1.1" viewBox="0 0 192 192" width="100px" height="100px"><g fill="none" fill-rule="nonzero" stroke="none" stroke-width="1" stroke-linecap="butt" stroke-linejoin="miter" stroke-miterlimit="10" stroke-dasharray="" stroke-dashoffset="0" font-family="none" font-weight="none" font-size="none" text-anchor="none" style="mix-blend-mode: normal"><path d="M0,192v-192h192v192z" fill="none"/><path d="M0,192v-192h192v192z" fill="none"/><path d="M3.84,188.16v-184.32h184.32v184.32z" fill="none"/><path d="M0,192v-192h192v192z" fill="none"/><path d="M7.68,184.32v-176.64h176.64v176.64z" fill="none"/><path d="M0,192v-192h192v192z" fill="none"/><path d="M19.2,172.8v-153.6h153.6v153.6z" fill="none"/><path d="M0,192v-192h192v192z" fill="none"/><path d="M23.04,168.96v-145.92h145.92v145.92z" fill="none"/><path d="M0,192v-192h192v192z" fill="none"/><path d="M26.88,165.12v-138.24h138.24v138.24z" fill="none"/><path d="M0,192v-192h192v192z" fill="none"/><path d="M23.04,168.96v-145.92h145.92v145.92z" fill="none"/><path d="M3.84,192c-2.12077,0 -3.84,-1.71923 -3.84,-3.84v-184.32c0,-2.12077 1.71923,-3.84 3.84,-3.84h184.32c2.12077,0 3.84,1.71923 3.84,3.84v184.32c0,2.12077 -1.71923,3.84 -3.84,3.84z" fill="none"/><path d="M26.88,168.96c-2.12077,0 -3.84,-1.71923 -3.84,-3.84v-138.24c0,-2.12077 1.71923,-3.84 3.84,-3.84h138.24c2.12077,0 3.84,1.71923 3.84,3.84v138.24c0,2.12077 -1.71923,3.84 -3.84,3.84z" fill="none"/><path d="M34.56,192c-19.08696,0 -34.56,-15.47304 -34.56,-34.56v-122.88c0,-19.08696 15.47304,-34.56 34.56,-34.56h122.88c19.08696,0 34.56,15.47304 34.56,34.56v122.88c0,19.08696 -15.47304,34.56 -34.56,34.56z" fill="none"/><path d="M57.6,168.96c-19.08696,0 -34.56,-15.47304 -34.56,-34.56v-76.8c0,-19.08696 15.47304,-34.56 34.56,-34.56h76.8c19.08696,0 34.56,15.47304 34.56,34.56v76.8c0,19.08696 -15.47304,34.56 -34.56,34.56z" fill="none"/><path d="M48.96,192c-27.03986,0 -48.96,-21.92014 -48.96,-48.96v-94.08c0,-27.03986 21.92014,-48.96 48.96,-48.96h94.08c27.03986,0 48.96,21.92014 48.96,48.96v94.08c0,27.03986 -21.92014,48.96 -48.96,48.96z" fill="none"/><path d="M72,168.96c-27.03986,0 -48.96,-21.92014 -48.96,-48.96v-48c0,-27.03986 21.92014,-48.96 48.96,-48.96h48c27.03986,0 48.96,21.92014 48.96,48.96v48c0,27.03986 -21.92014,48.96 -48.96,48.96z" fill="none"/><path d="M50.88,192c-28.10025,0 -50.88,-22.77975 -50.88,-50.88v-90.24c0,-28.10025 22.77975,-50.88 50.88,-50.88h90.24c28.10025,0 50.88,22.77975 50.88,50.88v90.24c0,28.10025 -22.77975,50.88 -50.88,50.88z" fill="none"/><path d="M73.92,168.96c-28.10025,0 -50.88,-22.77975 -50.88,-50.88v-44.16c0,-28.10025 22.77975,-50.88 50.88,-50.88h44.16c28.10025,0 50.88,22.77975 50.88,50.88v44.16c0,28.10025 -22.77975,50.88 -50.88,50.88z" fill="none"/><path d="M54.72,192c-30.22102,0 -54.72,-24.49898 -54.72,-54.72v-82.56c0,-30.22102 24.49898,-54.72 54.72,-54.72h82.56c30.22102,0 54.72,24.49898 54.72,54.72v82.56c0,30.22102 -24.49898,54.72 -54.72,54.72z" fill="none"/><path d="M77.76,168.96c-30.22102,0 -54.72,-24.49898 -54.72,-54.72v-36.48c0,-30.22102 24.49898,-54.72 54.72,-54.72h36.48c30.22102,0 54.72,24.49898 54.72,54.72v36.48c0,30.22102 -24.49898,54.72 -54.72,54.72z" fill="none"/><path d="M96,192c-53.01934,0 -96,-42.98066 -96,-96v0c0,-53.01934 42.98066,-96 96,-96v0c53.01934,0 96,42.98066 96,96v0c0,53.01934 -42.98066,96 -96,96z" fill="none"/><path d="M96,168.96c-40.2947,0 -72.96,-32.6653 -72.96,-72.96v0c0,-40.2947 32.6653,-72.96 72.96,-72.96v0c40.2947,0 72.96,32.6653 72.96,72.96v0c0,40.2947 -32.6653,72.96 -72.96,72.96z" fill="none"/><path d="M94.08,192c-51.95895,0 -94.08,-42.12105 -94.08,-94.08v-3.84c0,-51.95895 42.12105,-94.08 94.08,-94.08h3.84c51.95895,0 94.08,42.12105 94.08,94.08v3.84c0,51.95895 -42.12105,94.08 -94.08,94.08z" fill="none"/><path d="M96,168.96c-40.2947,0 -72.96,-32.6653 -72.96,-72.96v0c0,-40.2947 32.6653,-72.96 72.96,-72.96v0c40.2947,0 72.96,32.6653 72.96,72.96v0c0,40.2947 -32.6653,72.96 -72.96,72.96z" fill="none"/><path d="M25.92,192c-14.31522,0 -25.92,-11.60478 -25.92,-25.92v-140.16c0,-14.31522 11.60478,-25.92 25.92,-25.92h140.16c14.31522,0 25.92,11.60478 25.92,25.92v140.16c0,14.31522 -11.60478,25.92 -25.92,25.92z" fill="none"/><path d="M48.96,168.96c-14.31522,0 -25.92,-11.60478 -25.92,-25.92v-94.08c0,-14.31522 11.60478,-25.92 25.92,-25.92h94.08c14.31522,0 25.92,11.60478 25.92,25.92v94.08c0,14.31522 -11.60478,25.92 -25.92,25.92z" fill="none"/><path d="M0,192v-192h192v192z" fill="none"/><path d="M23.04,168.96v-145.92h145.92v145.92z" fill="none"/><g fill="#fff"><g id="surface1"><path d="M24,88h144v16h-144z"/><path d="M24,40h144v16h-144z"/><path d="M24,136h144v16h-144z"/></g></g></g></svg>
